<svg id="Layer_1" enable-background="new 0 0 512 512" height="512" viewBox="0 0 512 512" width="512" xmlns="http://www.w3.org/2000/svg"><g><g><path d="m0 276.474v-123.881c0-22.758 18.449-41.207 41.207-41.207h429.586c22.758 0 41.207 18.449 41.207 41.207v122.002 1.879z" fill="#ff7893"/><path d="m470.793 111.385h-41.207c22.758 0 41.207 18.449 41.207 41.207v122.002 1.879h41.207v-1.879-122.001c0-22.758-18.449-41.208-41.207-41.208z" fill="#ff5e7f"/><path d="m461.527 234.853h-141.286c-5.69 0-10.302-4.612-10.302-10.302v-61.857c0-5.69 4.612-10.302 10.302-10.302h141.286c5.69 0 10.302 4.612 10.302 10.302v61.857c0 5.69-4.612 10.302-10.302 10.302z" fill="#fff7e8"/><path d="m470.793 464.969h-429.586c-22.758 0-41.207-18.449-41.207-41.207v-149.167h512v149.167c0 22.758-18.449 41.207-41.207 41.207z" fill="#fff7e8"/><path d="m470.793 274.595v149.168c0 22.758-18.449 41.207-41.207 41.207h41.207c22.758 0 41.207-18.449 41.207-41.207v-149.168z" fill="#fff1d6"/><g><path d="m133.924 111.386 28.015-71.102c9.768-24.471 33.106-40.284 59.456-40.284h69.209c26.35 0 49.689 15.813 59.458 40.285l28.014 71.101z" fill="#ffd88f"/><path d="m330.81 111.386h-149.277l20.072-51.57c4.182-10.476 14.325-17.348 25.605-17.348h57.621c11.28 0 21.423 6.872 25.605 17.348z" fill="#59a1a5"/></g></g><g><circle cx="256" cy="342.445" fill="#ffd88f" r="169.555"/><circle cx="256" cy="342.445" fill="#59a1a5" r="124.403"/><path d="m256 218.042c-7.018 0-13.899.593-20.604 1.715 58.825 9.847 103.8 61.11 103.8 122.688s-44.975 112.841-103.8 122.688c6.704 1.122 13.585 1.715 20.604 1.715 68.596 0 124.403-55.807 124.403-124.403s-55.807-124.403-124.403-124.403z" fill="#419296"/></g></g></svg>